<?xml version="1.0" encoding="UTF-8" standalone="no"?><svg xmlns="http://www.w3.org/2000/svg" xmlns:xlink="http://www.w3.org/1999/xlink" contentScriptType="application/ecmascript" contentStyleType="text/css" height="284.375px" preserveAspectRatio="none" style="width:338px;height:284px;" version="1.1" viewBox="0 0 338 284" width="338.5417px" zoomAndPan="magnify"><defs><linearGradient id="gpko7xf64w6n80" x1="50%" x2="50%" y1="0%" y2="100%"><stop offset="0%" stop-color="#59B6EC"/><stop offset="100%" stop-color="#2FA4E7"/></linearGradient><linearGradient id="gpko7xf64w6n81" x1="50%" x2="50%" y1="0%" y2="100%"><stop offset="0%" stop-color="#2FA4E7"/><stop offset="100%" stop-color="#2683B9"/></linearGradient></defs><g><!--MD5=[1c6857ac495ee2749ec0cda40d744d56]
class book--><rect fill="url(#gpko7xf64w6n80)" height="101.3763" id="book" rx="4.1667" ry="4.1667" style="stroke: #2FA4E7; stroke-width: 1.0416666666666667;" width="161.4583" x="6.25" y="8.3333"/><rect fill="url(#gpko7xf64w6n81)" height="36.025" rx="4.1667" ry="4.1667" style="stroke: url(#gpko7xf64w6n81); stroke-width: 1.0416666666666667;" width="161.4583" x="6.25" y="8.3333"/><rect fill="url(#gpko7xf64w6n81)" height="4.1667" style="stroke: url(#gpko7xf64w6n81); stroke-width: 1.0416666666666667;" width="161.4583" x="6.25" y="40.1917"/><rect fill="none" height="101.3763" id="book" rx="4.1667" ry="4.1667" style="stroke: #2FA4E7; stroke-width: 1.0416666666666667;" width="161.4583" x="6.25" y="8.3333"/><ellipse cx="63.0208" cy="26.3458" fill="#EDF0F2" rx="10.4167" ry="10.4167" style="stroke: #BABDBF; stroke-width: 1.0416666666666667;"/><path d="M64.9312,30.7709 Q64.504,30.9906 64.034,31.1005 Q63.564,31.2103 63.0452,31.2103 Q61.202,31.2103 60.2315,29.9957 Q59.2611,28.7811 59.2611,26.4862 Q59.2611,24.1852 60.2315,22.9706 Q61.202,21.756 63.0452,21.756 Q63.564,21.756 64.0401,21.8658 Q64.5162,21.9757 64.9312,22.1954 L64.9312,24.1974 Q64.4674,23.7701 64.031,23.5718 Q63.5946,23.3734 63.1307,23.3734 Q62.1419,23.3734 61.6384,24.1577 Q61.1348,24.942 61.1348,26.4862 Q61.1348,28.0243 61.6384,28.8086 Q62.1419,29.5929 63.1307,29.5929 Q63.5946,29.5929 64.031,29.3945 Q64.4674,29.1962 64.9312,28.7689 Z "/><text fill="#FFFFFF" font-family="Verdana" font-size="12.5" lengthAdjust="spacingAndGlyphs" textLength="29.1667" x="88.0208" y="31.3171">book</text><line style="stroke: #2FA4E7; stroke-width: 1.0416666666666667;" x1="7.2917" x2="166.6667" y1="44.3583" y2="44.3583"/><line style="stroke: #2FA4E7; stroke-width: 1.0416666666666667;" x1="7.2917" x2="166.6667" y1="52.6917" y2="52.6917"/><ellipse cx="17.7083" cy="64.15" fill="#84BE84" rx="3.125" ry="3.125" style="stroke: #038048; stroke-width: 1.0416666666666667;"/><text fill="#F8F9FA" font-family="Verdana" font-size="11.4583" lengthAdjust="spacingAndGlyphs" textLength="86.4583" x="31.25" y="73.5865">id : binary(16)</text><ellipse cx="17.7083" cy="88.4923" fill="#84BE84" rx="3.125" ry="3.125" style="stroke: #038048; stroke-width: 1.0416666666666667;"/><text fill="#F8F9FA" font-family="Verdana" font-size="11.4583" lengthAdjust="spacingAndGlyphs" textLength="125" x="31.25" y="97.9289">name : varchar(255)</text><!--MD5=[2498966aeaa8b0a614c8f23f0cab62cc]
class book3--><rect fill="url(#gpko7xf64w6n80)" height="101.3763" id="book3" rx="4.1667" ry="4.1667" style="stroke: #2FA4E7; stroke-width: 1.0416666666666667;" width="122.9167" x="204.6875" y="8.3333"/><rect fill="url(#gpko7xf64w6n81)" height="36.025" rx="4.1667" ry="4.1667" style="stroke: url(#gpko7xf64w6n81); stroke-width: 1.0416666666666667;" width="122.9167" x="204.6875" y="8.3333"/><rect fill="url(#gpko7xf64w6n81)" height="4.1667" style="stroke: url(#gpko7xf64w6n81); stroke-width: 1.0416666666666667;" width="122.9167" x="204.6875" y="40.1917"/><rect fill="none" height="101.3763" id="book3" rx="4.1667" ry="4.1667" style="stroke: #2FA4E7; stroke-width: 1.0416666666666667;" width="122.9167" x="204.6875" y="8.3333"/><ellipse cx="238.9583" cy="26.3458" fill="#EDF0F2" rx="10.4167" ry="10.4167" style="stroke: #BABDBF; stroke-width: 1.0416666666666667;"/><path d="M240.8687,30.7709 Q240.4415,30.9906 239.9715,31.1005 Q239.5015,31.2103 238.9827,31.2103 Q237.1395,31.2103 236.169,29.9957 Q235.1986,28.7811 235.1986,26.4862 Q235.1986,24.1852 236.169,22.9706 Q237.1395,21.756 238.9827,21.756 Q239.5015,21.756 239.9776,21.8658 Q240.4537,21.9757 240.8687,22.1954 L240.8687,24.1974 Q240.4049,23.7701 239.9685,23.5718 Q239.5321,23.3734 239.0682,23.3734 Q238.0794,23.3734 237.5759,24.1577 Q237.0723,24.942 237.0723,26.4862 Q237.0723,28.0243 237.5759,28.8086 Q238.0794,29.5929 239.0682,29.5929 Q239.5321,29.5929 239.9685,29.3945 Q240.4049,29.1962 240.8687,28.7689 Z "/><text fill="#FFFFFF" font-family="Verdana" font-size="12.5" lengthAdjust="spacingAndGlyphs" textLength="37.5" x="262.0833" y="31.3171">book3</text><line style="stroke: #2FA4E7; stroke-width: 1.0416666666666667;" x1="205.7292" x2="326.5625" y1="44.3583" y2="44.3583"/><ellipse cx="216.1458" cy="55.8167" fill="none" rx="3.125" ry="3.125" style="stroke: #038048; stroke-width: 1.0416666666666667;"/><text fill="#F8F9FA" font-family="Verdana" font-size="11.4583" lengthAdjust="spacingAndGlyphs" textLength="48.9583" x="229.6875" y="65.2532">id : json</text><line style="stroke: #2FA4E7; stroke-width: 1.0416666666666667;" x1="205.7292" x2="326.5625" y1="77.034" y2="77.034"/><ellipse cx="216.1458" cy="88.4923" fill="#84BE84" rx="3.125" ry="3.125" style="stroke: #038048; stroke-width: 1.0416666666666667;"/><text fill="#F8F9FA" font-family="Verdana" font-size="11.4583" lengthAdjust="spacingAndGlyphs" textLength="86.4583" x="229.6875" y="97.9289">id : binary(16)</text><!--MD5=[027709214ffb50ce0c58e5ce6783fd88]
class book5--><rect fill="url(#gpko7xf64w6n80)" height="101.3763" id="book5" rx="4.1667" ry="4.1667" style="stroke: #2FA4E7; stroke-width: 1.0416666666666667;" width="161.4583" x="6.25" y="171.875"/><rect fill="url(#gpko7xf64w6n81)" height="36.025" rx="4.1667" ry="4.1667" style="stroke: url(#gpko7xf64w6n81); stroke-width: 1.0416666666666667;" width="161.4583" x="6.25" y="171.875"/><rect fill="url(#gpko7xf64w6n81)" height="4.1667" style="stroke: url(#gpko7xf64w6n81); stroke-width: 1.0416666666666667;" width="161.4583" x="6.25" y="203.7333"/><rect fill="none" height="101.3763" id="book5" rx="4.1667" ry="4.1667" style="stroke: #2FA4E7; stroke-width: 1.0416666666666667;" width="161.4583" x="6.25" y="171.875"/><ellipse cx="58.8542" cy="189.8875" fill="#EDF0F2" rx="10.4167" ry="10.4167" style="stroke: #BABDBF; stroke-width: 1.0416666666666667;"/><path d="M60.7646,194.3125 Q60.3373,194.5323 59.8674,194.6421 Q59.3974,194.752 58.8786,194.752 Q57.0353,194.752 56.0649,193.5374 Q55.0944,192.3228 55.0944,190.0279 Q55.0944,187.7268 56.0649,186.5122 Q57.0353,185.2976 58.8786,185.2976 Q59.3974,185.2976 59.8735,185.4075 Q60.3495,185.5174 60.7646,185.7371 L60.7646,187.7391 Q60.3007,187.3118 59.8643,187.1134 Q59.4279,186.9151 58.964,186.9151 Q57.9753,186.9151 57.4717,187.6994 Q56.9682,188.4837 56.9682,190.0279 Q56.9682,191.566 57.4717,192.3503 Q57.9753,193.1346 58.964,193.1346 Q59.4279,193.1346 59.8643,192.9362 Q60.3007,192.7378 60.7646,192.3106 Z "/><text fill="#FFFFFF" font-family="Verdana" font-size="12.5" lengthAdjust="spacingAndGlyphs" textLength="37.5" x="83.8542" y="194.8588">book5</text><line style="stroke: #2FA4E7; stroke-width: 1.0416666666666667;" x1="7.2917" x2="166.6667" y1="207.9" y2="207.9"/><line style="stroke: #2FA4E7; stroke-width: 1.0416666666666667;" x1="7.2917" x2="166.6667" y1="216.2333" y2="216.2333"/><ellipse cx="17.7083" cy="227.6917" fill="#84BE84" rx="3.125" ry="3.125" style="stroke: #038048; stroke-width: 1.0416666666666667;"/><text fill="#F8F9FA" font-family="Verdana" font-size="11.4583" lengthAdjust="spacingAndGlyphs" textLength="86.4583" x="31.25" y="237.1282">id : binary(16)</text><ellipse cx="17.7083" cy="252.034" fill="#84BE84" rx="3.125" ry="3.125" style="stroke: #038048; stroke-width: 1.0416666666666667;"/><text fill="#F8F9FA" font-family="Verdana" font-size="11.4583" lengthAdjust="spacingAndGlyphs" textLength="125" x="31.25" y="261.4705">name : varchar(255)</text><!--MD5=[368d130392ba73bf8cdfde9b8e10fb73]
link book to book3--><!--MD5=[5601c7fc417bea89b21021b3b83f558d]
link book to book5--><!--MD5=[54adfc6446ab75620f2c29f5e5854878]
@startuml



skinparam backgroundColor transparent







skinparam defaultFontName        "Verdana"
skinparam defaultFontSize        12
skinparam dpi                    100
skinparam shadowing              false
skinparam roundcorner            8
skinparam ParticipantPadding     40
skinparam BoxPadding             40
skinparam Padding                5
skinparam ArrowColor             #868E96
skinparam stereotype {
    CBackgroundColor #EDF0F2
    CBorderColor #BABDBF
    ABackgroundColor #8FB961
    ABorderColor #5C862E
    IBackgroundColor #D2494E
    IBorderColor #9F161B
    EBackgroundColor #E47833
    EBorderColor #B14500
    NBackgroundColor #35638F
    NBorderColor #02305C
}
skinparam title {
	FontColor	                 #2FA4E7
	BorderColor	                 #BABDBF
	FontSize	    	         20
	BorderRoundCorner            8
	BorderThickness 	         1
	BackgroundColor              #EDF0F2-#E9ECEF
}


skinparam legend {
	BackgroundColor #E9ECEF
	BorderColor #BABDBF
	FontColor #343A40
}


skinparam activity {
		FontColor #FFF
	BorderColor #2FA4E7
	BackgroundColor #59B6EC-#2FA4E7
	BarColor #73A839
	StartColor #033C73
	EndColor #033C73
	DiamondBackgroundColor #FFF-#EDF0F2
  	DiamondBorderColor #BABDBF
	DiamondFontColor #343A40
}


skinparam participant {
		FontColor #FFF
	BorderColor #2FA4E7
	BackgroundColor #59B6EC-#2FA4E7
	ParticipantBorderThickness 2
}


skinparam actor {
		FontColor #FFF
	BorderColor #2FA4E7
	BackgroundColor #59B6EC-#2FA4E7
	FontColor #343A40
}


skinparam arrow {
	Thickness 3
	Color #2FA4E7
	FontColor #343A40
}


skinparam sequence {
	BorderColor #2FA4E7
	TitleFontColor #2FA4E7
	BackgroundColor transparent
	StartColor #2FA4E7
	EndColor #2FA4E7
	BoxBackgroundColor #F8F9FA
	BoxBorderColor #868E96
	BoxFontColor #343A40
	LifeLineBorderColor #BABDBF
	LifeLineBorderThickness 2
	LifeLineBackgroundColor #EDF0F2
	GroupBorderColor #868E96
	GroupFontColor #343A40
	GroupHeaderFontColor #033C73
	DividerBackgroundColor #FFF-#F8F9FA
    DividerBorderColor #868E96
    DividerBorderThickness 2
    DividerFontColor #343A40
	ReferenceBackgroundColor transparent
	ReferenceBorderColor #868E96
	ReferenceFontColor #343A40
	ReferenceHeaderFontColor #033C73
}


skinparam partition {
	BorderColor #2FA4E7
	FontColor #2FA4E7
	BackgroundColor transparent
}


skinparam collections {
		FontColor #FFF
	BorderColor #2FA4E7
	BackgroundColor #59B6EC-#2FA4E7
}


skinparam control {
		FontColor #FFF
	BorderColor #2FA4E7
	BackgroundColor #59B6EC-#2FA4E7
	FontColor #343A40
}


skinparam entity {
		FontColor #FFF
	BorderColor #2FA4E7
	BackgroundColor #59B6EC-#2FA4E7
	FontColor #343A40
}


skinparam boundary {
		FontColor #FFF
	BorderColor #2FA4E7
	BackgroundColor #59B6EC-#2FA4E7
	FontColor #343A40
}


skinparam agent {
	BackgroundColor #orange
	BorderColor #999999
	FontColor #333333
}


skinparam note {
	BorderThickness 1
	BackgroundColor #35638F-#033C73
	BorderColor #033C73
	FontColor #FFF
}


skinparam artifact {
	BackgroundColor #FFF-#F8F9FA
	BorderColor #BABDBF
	FontColor #343A40
}


skinparam component {
		FontColor #FFF
	BorderColor #2FA4E7
	BackgroundColor #59B6EC-#2FA4E7
}


skinparam interface {
	BackgroundColor  #D2494E
	BorderColor  #C71C22
	FontColor #343A40
}


skinparam storage {
	BackgroundColor #E47833-#DD5600
  	BorderColor #DD5600
	FontColor #FFF
}


skinparam node {
	BackgroundColor #EDF0F2-#E9ECEF
	BorderColor #E9ECEF
	FontColor #343A40
}


skinparam cloud {
	BackgroundColor #F2FCFE-#eeeeee
	BorderColor #F2FCFE
	FontColor #2FA4E7
}


skinparam database {
		FontColor #FFF
	BorderColor #2FA4E7
	BackgroundColor #59B6EC-#2FA4E7
	FontColor #343A40
}


skinparam class {
		FontColor #FFF
	BorderColor #2FA4E7
	BackgroundColor #59B6EC-#2FA4E7
	HeaderBackgroundColor #2FA4E7-#2683B9
	StereotypeFontColor #343A40
	BorderThickness 1
	AttributeFontColor #F8F9FA
	AttributeFontSize 11
}


skinparam object {
		FontColor #FFF
	BorderColor #2FA4E7
	BackgroundColor #59B6EC-#2FA4E7
	StereotypeFontColor #343A40
	BorderThickness 1
	AttributeFontColor #343A40
	AttributeFontSize 11
}


skinparam usecase {
		FontColor #FFF
	BorderColor #2FA4E7
	BackgroundColor #59B6EC-#2FA4E7
	BorderThickness 2
	StereotypeFontColor #2FA4E7
}


skinparam rectangle {
	FontColor #2FA4E7
	BorderColor #59B6EC
	BackgroundColor transparent
	BorderThickness 2
	StereotypeFontColor #2FA4E7
}


skinparam package {
	FontColor #2FA4E7
	BorderColor #59B6EC
	BackgroundColor transparent
	BorderThickness 2
}


skinparam folder {
	BackgroundColor #FFF-#EDF0F2
  	BorderColor #DD5600
	FontColor #DD5600
	BorderThickness 2
}


skinparam frame {
	BackgroundColor #FFF-#EDF0F2
  	BorderColor #033C73
	FontColor #033C73
	BorderThickness 2
}


skinparam state {
		FontColor #FFF
	BorderColor #2FA4E7
	BackgroundColor #59B6EC-#2FA4E7
	StartColor #033C73
	EndColor #033C73
	AttributeFontColor #343A40
	AttributeFontSize 11
}


skinparam queue {
		FontColor #FFF
	BorderColor #2FA4E7
	BackgroundColor #59B6EC-#2FA4E7
}


skinparam card {
	BackgroundColor #35638F-#033C73
	BorderColor #033C73
	FontColor #FFF
}


skinparam file {
	BackgroundColor #EDF0F2-#E9ECEF
	BorderColor #033C73
	FontColor #868E96

}


class "book" {
+id : binary(16)
+name : varchar(255)
}
class "book3" {
+id : binary(16)
}
class "book3" {
+id : json
}
class "book5" {
+id : binary(16)
+name : varchar(255)
}
@enduml

PlantUML version 1.2020.07(Sun Apr 19 13:42:40 CEST 2020)
(GPL source distribution)
Java Runtime: OpenJDK Runtime Environment
JVM: OpenJDK 64-Bit Server VM
Java Version: 13.0.2+8
Operating System: Mac OS X
Default Encoding: UTF-8
Language: de
Country: DE
--></g></svg>